<svg width="242" height="74" viewBox="0 0 242 74" fill="none" xmlns="http://www.w3.org/2000/svg">
<path d="M232.896 72.286H9.11055C4.57542 72.286 0.900391 68.5198 0.900391 63.8722V9.54284C0.900391 4.8952 4.57542 1.12901 9.11055 1.12901H232.896C237.431 1.12901 241.106 4.8952 241.106 9.54284V63.8722C241.106 68.5198 237.431 72.286 232.896 72.286Z" fill="url(#paint0_linear_5473_2149)"/>
<path d="M9.10503 2.05128C5.07379 2.05128 1.79407 5.41236 1.79407 9.5436V63.8729C1.79407 68.0041 5.07379 71.3652 9.10503 71.3652H232.895C236.926 71.3652 240.206 68.0041 240.206 63.8729V9.5436C240.206 5.41236 236.926 2.05128 232.895 2.05128H9.10503ZM232.895 73.2083H9.10503C4.08336 73.2083 0 69.0191 0 63.8729V9.5436C0 4.39736 4.08336 0.208252 9.10503 0.208252H232.895C237.917 0.208252 242 4.39736 242 9.5436V63.8729C242 69.0191 237.917 73.2083 232.895 73.2083Z" fill="black"/>
<path d="M83.9173 19.3151L82.9964 16.3591C82.7705 15.6291 82.5793 14.8144 82.4056 14.1199H82.3708C82.2014 14.8144 82.0233 15.6469 81.8191 16.3591L80.9156 19.3151H83.9173ZM80.5681 20.9667L79.5603 24.3679H77.3535L81.1067 12.3748H83.8304L87.6314 24.3679H85.3421L84.2822 20.9667" fill="white"/>
<path d="M90.8227 15.7037L92.1954 20.0932C92.4387 20.8589 92.6081 21.5534 92.7645 22.2656H92.8166C92.973 21.5534 93.1641 20.8767 93.39 20.0932L94.7454 15.7037H96.9825L93.7549 24.3669H91.6568L88.5117 15.7037" fill="white"/>
<path d="M103.427 20.1286C101.915 20.1108 100.473 20.4313 100.473 21.7491C100.473 22.6038 101.012 22.9956 101.689 22.9956C102.554 22.9956 103.166 22.4257 103.37 21.8025C103.427 21.6422 103.427 21.482 103.427 21.3217V20.1286ZM105.508 22.2833C105.508 23.0668 105.542 23.8325 105.647 24.3622H103.718L103.566 23.4051H103.509C103.01 24.0773 102.124 24.5581 101.012 24.5581C99.3088 24.5581 98.3574 23.2983 98.3574 21.9806C98.3574 19.8081 100.247 18.6907 103.37 18.7085V18.5661C103.37 17.9962 103.149 17.0525 101.655 17.0525C100.82 17.0525 99.9517 17.3196 99.3783 17.6935L98.9612 16.2689C99.5868 15.8772 100.681 15.5077 102.019 15.5077C104.726 15.5077 105.508 17.2661 105.508 19.1715" fill="white"/>
<path d="M108.524 15.7039H110.657V24.367H108.524V15.7039ZM109.58 14.4574C108.871 14.4574 108.402 13.9232 108.402 13.2821C108.402 12.6055 108.885 12.0891 109.601 12.0891C110.327 12.0891 110.779 12.6055 110.796 13.2821C110.796 13.9232 110.327 14.4574 109.601 14.4574" fill="white"/>
<path d="M113.732 24.3675H115.87V11.7156H113.732V24.3675Z" fill="white"/>
<path d="M123.435 20.1286C121.923 20.1108 120.481 20.4313 120.481 21.7491C120.481 22.6038 121.019 22.9956 121.697 22.9956C122.566 22.9956 123.174 22.4257 123.383 21.8025C123.435 21.6422 123.435 21.482 123.435 21.3217V20.1286ZM125.515 22.2833C125.515 23.0668 125.55 23.8325 125.654 24.3622H123.73L123.574 23.4051H123.522C123.018 24.0773 122.131 24.5581 121.019 24.5581C119.321 24.5581 118.365 23.2983 118.365 21.9806C118.365 19.8081 120.259 18.6907 123.383 18.7085V18.5661C123.383 17.9962 123.157 17.0525 121.662 17.0525C120.828 17.0525 119.959 17.3196 119.39 17.6935L118.973 16.2689C119.599 15.8772 120.689 15.5077 122.027 15.5077C124.734 15.5077 125.515 17.2661 125.515 19.1715" fill="white"/>
<path d="M130.674 20.7883C130.674 20.9663 130.691 21.1444 130.726 21.3047C130.952 22.195 131.699 22.8361 132.615 22.8361C133.953 22.8361 134.77 21.7498 134.77 19.9914C134.77 18.46 134.058 17.2135 132.633 17.2135C131.764 17.2135 130.969 17.8545 130.743 18.8161C130.708 18.9764 130.674 19.1723 130.674 19.3859V20.7883ZM128.536 11.7156H130.674V16.893H130.708C131.23 16.056 132.146 15.5085 133.415 15.5085C135.482 15.5085 136.955 17.2669 136.938 19.9024C136.938 23.0141 135.013 24.5633 133.102 24.5633C132.007 24.5633 131.038 24.136 130.43 23.0676H130.396L130.291 24.3675H128.467C128.502 23.7798 128.536 22.8183 128.536 21.9457" fill="white"/>
<path d="M139.449 24.3675H141.582V11.7156H139.449V24.3675Z" fill="white"/>
<path d="M149.899 19.1181C149.917 18.3168 149.569 16.999 148.149 16.999C146.828 16.999 146.272 18.2277 146.185 19.1181H149.899ZM146.185 20.645C146.237 22.212 147.436 22.8887 148.792 22.8887C149.778 22.8887 150.473 22.7284 151.133 22.497L151.446 23.9883C150.716 24.3133 149.708 24.5403 148.496 24.5403C145.751 24.5403 144.135 22.8175 144.135 20.1687C144.135 17.7647 145.56 15.5077 148.27 15.5077C151.011 15.5077 151.915 17.8182 151.915 19.7235C151.915 20.1331 151.88 20.4536 151.845 20.645" fill="white"/>
<path d="M162.518 22.9777C163.73 22.9777 164.581 21.7669 164.581 20.0084C164.581 18.6551 163.99 17.0881 162.535 17.0881C161.023 17.0881 160.415 18.6017 160.415 20.044C160.415 21.7134 161.232 22.9777 162.496 22.9777H162.518ZM162.448 24.5626C160.068 24.5626 158.213 22.8887 158.213 20.0975C158.213 17.2483 160.033 15.5077 162.587 15.5077C165.102 15.5077 166.788 17.3196 166.788 19.955C166.788 23.138 164.599 24.5626 162.466 24.5626" fill="white"/>
<path d="M169.3 18.2811C169.3 17.2839 169.269 16.447 169.234 15.6991H171.089L171.194 16.999H171.246C171.628 16.3224 172.549 15.5077 173.956 15.5077C175.429 15.5077 176.958 16.4826 176.958 19.2249V24.3622H174.821V19.4742C174.821 18.2277 174.369 17.2839 173.209 17.2839C172.358 17.2839 171.767 17.9072 171.541 18.5661C171.472 18.7441 171.437 19.0112 171.437 19.2605V24.3622H169.3" fill="white"/>
<path d="M186.798 13.4779V15.6993H188.826V17.3376H186.798V21.1438C186.798 22.2122 187.076 22.7465 187.888 22.7465C188.27 22.7465 188.479 22.7287 188.722 22.6574L188.757 24.309C188.444 24.4381 187.871 24.5405 187.21 24.5405C186.415 24.5405 185.772 24.2734 185.373 23.8327C184.904 23.3341 184.695 22.5328 184.695 21.3931V17.3376H183.496V15.6993H184.695V14.0833" fill="white"/>
<path d="M191.203 11.7156H193.34V16.8752H193.375C193.636 16.4656 194.001 16.1273 194.435 15.8958C194.869 15.6509 195.369 15.5085 195.908 15.5085C197.35 15.5085 198.857 16.4834 198.857 19.2613V24.3675H196.724V19.4928C196.724 18.2463 196.273 17.2847 195.091 17.2847C194.261 17.2847 193.671 17.8545 193.427 18.5134C193.358 18.7093 193.34 18.9408 193.34 19.1723V24.3675H191.203" fill="white"/>
<path d="M207.118 19.1181C207.135 18.3168 206.788 16.999 205.363 16.999C204.042 16.999 203.491 18.2277 203.404 19.1181H207.118ZM203.404 20.645C203.456 22.212 204.651 22.8887 206.006 22.8887C206.996 22.8887 207.691 22.7284 208.347 22.497L208.664 23.9883C207.935 24.3133 206.927 24.5403 205.711 24.5403C202.969 24.5403 201.354 22.8175 201.354 20.1687C201.354 17.7647 202.778 15.5077 205.485 15.5077C208.226 15.5077 209.129 17.8182 209.129 19.7235C209.129 20.1331 209.095 20.4536 209.06 20.645" fill="white"/>
<path d="M54.0079 35.9953C53.9514 30.0611 58.7472 27.1719 58.9688 27.0384C56.2537 22.9784 52.0444 22.4264 50.5631 22.3818C47.0314 22.0034 43.604 24.5543 41.8056 24.5543C39.9681 24.5543 37.1923 22.4219 34.2079 22.4842C30.3592 22.5466 26.7623 24.8303 24.7901 28.3695C20.7242 35.5947 23.7563 46.2077 27.6572 52.0484C29.612 54.9064 31.8882 58.1028 34.8726 57.987C37.7917 57.8624 38.8821 56.0817 42.4051 56.0817C45.8976 56.0817 46.9228 57.987 49.968 57.9158C53.1 57.8624 55.0722 55.0444 56.9531 52.1552C59.212 48.8787 60.1156 45.6512 60.1503 45.4865C60.0765 45.4598 54.0687 43.1092 54.0079 35.9953Z" fill="white"/>
<path d="M48.2583 18.5449C49.8265 16.5327 50.9082 13.7905 50.6041 11.0126C48.3322 11.1194 45.4912 12.6241 43.8535 14.5918C42.407 16.328 41.1081 19.1726 41.4469 21.8437C44.0012 22.0396 46.6206 20.526 48.2583 18.5449Z" fill="white"/>
<path d="M89.24 47.3245L87.2244 40.9451C87.0115 40.2952 86.6119 38.7593 86.0211 36.3465H85.9516C85.717 37.3837 85.3348 38.9196 84.8178 40.9451L82.837 47.3245H89.24ZM96.2078 57.5146H92.1375L89.909 50.3383H82.168L80.0438 57.5146H76.082L83.7622 33.0833H88.4972" fill="white"/>
<path d="M112.055 48.6339C112.055 46.9155 111.677 45.5043 110.922 44.3913C110.096 43.2339 108.988 42.6507 107.598 42.6507C106.656 42.6507 105.796 42.9757 105.035 43.6123C104.271 44.2578 103.767 45.0947 103.528 46.1364C103.411 46.6172 103.354 47.0134 103.354 47.325V50.2632C103.354 51.5453 103.737 52.6271 104.501 53.5085C105.27 54.3944 106.265 54.8307 107.49 54.8307C108.932 54.8307 110.053 54.2653 110.848 53.1257C111.656 51.9905 112.055 50.4947 112.055 48.6339ZM115.948 48.4869C115.948 51.483 115.157 53.8558 113.576 55.592C112.16 57.1412 110.4 57.9113 108.306 57.9113C106.039 57.9113 104.414 57.0744 103.424 55.4094H103.354V64.6914H99.5316V45.6957C99.5316 43.8126 99.4881 41.8805 99.3926 39.895H102.75L102.963 42.6908H103.037C104.31 40.5851 106.243 39.5345 108.836 39.5345C110.861 39.5345 112.559 40.358 113.91 42.0007C115.266 43.6479 115.948 45.807 115.948 48.4869Z" fill="white"/>
<path d="M131.822 48.6339C131.822 46.9155 131.445 45.5043 130.689 44.3913C129.863 43.2339 128.756 42.6507 127.366 42.6507C126.423 42.6507 125.567 42.9757 124.803 43.6123C124.034 44.2578 123.538 45.0947 123.304 46.1364C123.182 46.6172 123.126 47.0134 123.126 47.325V50.2632C123.126 51.5453 123.504 52.6271 124.268 53.5085C125.037 54.3944 126.032 54.8307 127.261 54.8307C128.699 54.8307 129.82 54.2653 130.619 53.1257C131.418 51.9905 131.822 50.4947 131.822 48.6339ZM135.71 48.4869C135.71 51.483 134.924 53.8558 133.343 55.592C131.927 57.1412 130.172 57.9113 128.074 57.9113C125.81 57.9113 124.186 57.0744 123.191 55.4094H123.126V64.6914H119.303V45.6957C119.303 43.8126 119.255 41.8805 119.164 39.895H122.522L122.735 42.6908H122.809C124.077 40.5851 126.01 39.5345 128.604 39.5345C130.632 39.5345 132.322 40.358 133.682 42.0007C135.037 43.6479 135.71 45.807 135.71 48.4869Z" fill="white"/>
<path d="M157.823 50.6636C157.823 52.7381 157.119 54.4298 155.703 55.7386C154.148 57.1631 151.989 57.8754 149.213 57.8754C146.646 57.8754 144.587 57.3679 143.027 56.3529L143.914 53.0942C145.595 54.1315 147.432 54.6479 149.439 54.6479C150.877 54.6479 151.998 54.3185 152.801 53.6551C153.601 52.9874 154 52.097 154 50.9841C154 49.9958 153.674 49.1544 153.014 48.4777C152.354 47.8011 151.255 47.1734 149.721 46.5902C145.547 44.992 143.462 42.6548 143.462 39.5831C143.462 37.5754 144.192 35.9282 145.655 34.6461C147.115 33.364 149.061 32.7185 151.489 32.7185C153.661 32.7185 155.464 33.1103 156.902 33.8804L155.946 37.0723C154.604 36.3244 153.084 35.946 151.385 35.946C150.039 35.946 148.992 36.2844 148.24 36.961C147.606 37.5665 147.284 38.3055 147.284 39.1736C147.284 40.1396 147.645 40.9365 148.379 41.5642C149.013 42.1429 150.169 42.7706 151.846 43.4517C153.896 44.2975 155.403 45.2858 156.372 46.421C157.336 47.5562 157.823 48.9719 157.823 50.6636Z" fill="white"/>
<path d="M170.446 42.8336H166.236V51.3854C166.236 53.5624 166.979 54.6486 168.469 54.6486C169.147 54.6486 169.716 54.5907 170.163 54.4705L170.268 57.4398C169.52 57.7337 168.526 57.8761 167.301 57.8761C165.793 57.8761 164.612 57.4042 163.76 56.4649C162.913 55.5211 162.487 53.9363 162.487 51.7149V42.8336H159.977V39.8954H162.487V36.6724L166.236 35.5105V39.8954H170.446" fill="white"/>
<path d="M185.481 48.6873C185.481 47.0624 185.137 45.6734 184.451 44.5071C183.656 43.1003 182.509 42.3969 181.024 42.3969C179.49 42.3969 178.322 43.1003 177.522 44.5071C176.836 45.6734 176.502 47.0891 176.502 48.763C176.502 50.3879 176.836 51.7768 177.522 52.9387C178.348 54.3455 179.503 55.0488 180.993 55.0488C182.449 55.0488 183.595 54.3366 184.421 52.9031C185.129 51.7189 185.481 50.3122 185.481 48.6873ZM189.442 48.5626C189.442 51.2693 188.691 53.4907 187.179 55.2314C185.598 57.021 183.5 57.9113 180.885 57.9113C178.356 57.9113 176.35 57.0521 174.851 55.3382C173.357 53.6243 172.609 51.4607 172.609 48.852C172.609 46.1186 173.378 43.8838 174.925 42.1476C176.467 40.4025 178.548 39.5345 181.163 39.5345C183.687 39.5345 185.72 40.3936 187.249 42.1076C188.713 43.7814 189.442 45.9272 189.442 48.5626Z" fill="white"/>
<path d="M201.856 43.3407C201.478 43.2695 201.079 43.2339 200.653 43.2339C199.311 43.2339 198.268 43.7547 197.538 44.792C196.904 45.7135 196.587 46.871 196.587 48.2688V57.5151H192.769L192.799 45.4464C192.799 43.4119 192.751 41.5645 192.66 39.895H195.988L196.127 43.2695H196.227C196.631 42.112 197.269 41.1772 198.138 40.4782C198.989 39.8505 199.91 39.5345 200.901 39.5345C201.253 39.5345 201.574 39.5612 201.856 39.6057" fill="white"/>
<path d="M215.293 46.8576C215.319 45.7001 215.072 44.694 214.555 43.8482C213.895 42.762 212.874 42.2144 211.51 42.2144C210.263 42.2144 209.247 42.7486 208.469 43.8126C207.835 44.6584 207.452 45.6734 207.344 46.8576H215.293ZM218.934 47.8726C218.934 48.576 218.89 49.1636 218.799 49.6488H207.344C207.383 51.3895 207.939 52.7206 209.003 53.6376C209.968 54.4612 211.219 54.8663 212.752 54.8663C214.446 54.8663 215.993 54.5903 217.387 54.0338L217.987 56.7539C216.358 57.475 214.438 57.8445 212.218 57.8445C209.555 57.8445 207.461 57.0388 205.941 55.4272C204.425 53.8246 203.66 51.6655 203.66 48.9588C203.66 46.3011 204.364 44.0886 205.784 42.3257C207.266 40.4381 209.273 39.4988 211.792 39.4988C214.268 39.4988 216.149 40.4381 217.422 42.3257C218.434 43.8215 218.934 45.6734 218.934 47.8726Z" fill="white"/>
<defs>
<linearGradient id="paint0_linear_5473_2149" x1="121.003" y1="1.12901" x2="121.003" y2="72.286" gradientUnits="userSpaceOnUse">
<stop stop-color="#4D4D4D"/>
<stop offset="1"/>
</linearGradient>
</defs>
</svg>
