<svg width="103" height="28" viewBox="0 0 103 28" fill="none" xmlns="http://www.w3.org/2000/svg">
<path d="M4.42145 26.7944C3.02861 25.9907 1.93945 24.8546 1.1661 23.3823C0.388699 21.9139 0 20.2253 0 18.3163C0 16.4074 0.388699 14.7188 1.1661 13.2465C1.9435 11.7781 3.02861 10.642 4.42145 9.83827C5.81834 9.03452 7.40958 8.63264 9.19921 8.63264C10.4382 8.63264 11.5881 8.82972 12.653 9.21614C13.7178 9.60642 14.6208 10.1513 15.3577 10.8546V0H21.5566V27.6214H15.9893L15.9124 25.1328C15.1755 26.037 14.228 26.7403 13.07 27.2427C11.912 27.745 10.6244 27.9962 9.19921 27.9962C7.40958 27.9962 5.81834 27.5943 4.42145 26.7906V26.7944ZM7.44197 21.7053C8.2963 22.5863 9.40976 23.023 10.7783 23.023C12.1468 23.023 13.2644 22.5902 14.1349 21.7246C15.0014 20.859 15.4386 19.7229 15.4386 18.3125C15.4386 16.902 15.0054 15.7698 14.1349 14.9043C13.2644 14.0387 12.1468 13.6059 10.7783 13.6059C9.40976 13.6059 8.2963 14.0464 7.44197 14.9236C6.58359 15.8046 6.15845 16.933 6.15845 18.3163C6.15845 19.6997 6.58359 20.8281 7.44197 21.7091" fill="#FFB300"/>
<path d="M25.0705 0H31.2694V11.0439C32.7716 9.40935 34.7555 8.594 37.2295 8.594C39.7034 8.594 41.5254 9.35911 42.9344 10.8932C44.3435 12.4273 45.048 14.4985 45.048 17.1107V27.6252H38.849V17.4508C38.849 16.2451 38.5413 15.3023 37.9218 14.626C37.3023 13.9498 36.4399 13.6097 35.3345 13.6097C34.1239 13.6097 33.1441 14 32.391 14.7767C31.6419 15.5573 31.2653 16.5736 31.2653 17.8295V27.6252H25.0664V0H25.0705Z" fill="#FFB300"/>
<path d="M51.7008 26.7749C50.2918 25.9596 49.1945 24.8158 48.405 23.3474C47.6154 21.879 47.2227 20.2019 47.2227 18.3162C47.2227 16.4304 47.6154 14.7572 48.405 13.285C49.1945 11.8166 50.2918 10.6728 51.7008 9.85743C53.1098 9.04208 54.7213 8.63248 56.5393 8.63248C57.8552 8.63248 59.0658 8.85274 60.1712 9.29326C61.2766 9.73378 62.5722 10.6998 63.3618 11.5268L63.4063 9.0073H68.7752V27.6212H63.4063L63.4508 25.3993C61.7908 27.1343 59.1914 27.9999 56.5352 27.9999C54.7173 27.9999 53.1058 27.5903 51.6967 26.7749H51.7008ZM54.6565 21.7051C55.5109 22.5861 56.6243 23.0228 57.9929 23.0228C59.3614 23.0228 60.4789 22.59 61.3494 21.7244C62.2159 20.8588 62.6532 19.7228 62.6532 18.3123C62.6532 16.9019 62.22 15.7697 61.3494 14.9041C60.4789 14.0385 59.3614 13.6057 57.9929 13.6057C56.6243 13.6057 55.5109 14.0462 54.6565 14.9234C53.8022 15.8044 53.373 16.9328 53.373 18.3162C53.373 19.6996 53.8022 20.8279 54.6565 21.709" fill="#FFB300"/>
<path d="M72.2892 8.21187H78.0185L78.0509 11.195C78.8161 10.3642 79.7271 9.72664 80.7961 9.27066C81.8609 8.81855 83.0392 8.59442 84.3308 8.59442C86.7521 8.59442 88.6794 9.34795 90.1127 10.855C91.546 12.362 92.2667 14.4487 92.2667 17.1073V27.6218H86.0678V17.4473C86.0678 16.2417 85.752 15.2988 85.1203 14.6226C84.4887 13.9464 83.6182 13.6063 82.5128 13.6063C81.3022 13.6063 80.3264 13.9966 79.5895 14.7733C78.8526 15.5539 78.4841 16.5701 78.4841 17.826V27.6218H72.2852V8.21187H72.2892Z" fill="#FFB300"/>
<path d="M96.0823 0.935138C96.7909 0.313001 97.6857 0 98.7749 0C99.864 0 100.759 0.309137 101.467 0.935138C102.172 1.55728 102.528 2.36489 102.528 3.35027C102.528 4.33564 102.18 5.10075 101.488 5.72675C100.795 6.34889 99.8883 6.65803 98.7749 6.65803C97.6614 6.65803 96.7544 6.34889 96.0621 5.72675C95.3697 5.10462 95.0215 4.31246 95.0215 3.35027C95.0215 2.38808 95.3737 1.56114 96.0823 0.935138Z" fill="#FFB300"/>
<path d="M101.742 7.73286H95.543V27.6258H101.742V7.73286Z" fill="#FFB300"/>
</svg>
